{"title":"Near Dark 1987 DVDRip Xvid AC3 LKRG","uid":10149995,"size":1255687554,"categoryP":"video","categoryS":"movies","magnet":"?xt=urn:btih:48fe0c6c9b77889a96ca8d60bb4080d96c0311b0&amp;dn=Near+Dark+1987+DVDRip+Xvid+AC3+LKRG&amp;tr=udp%3A%2F%2Ftracker.openbittorrent.com%3A80&amp;tr=udp%3A%2F%2Fopen.demonii.com%3A1337&amp;tr=udp%3A%2F%2Ftracker.coppersurfer.tk%3A6969&amp;tr=udp%3A%2F%2Fexodus.desync.com%3A6969","seeders":9,"leechers":0,"uploader":".BONE.","files":2,"time":1400091712,"description":"\nPLOT\n\nA young man reluctantly joins a travelling &quot;family&quot; of evil vampires, when the girl\nhe'd tried to seduce is part of that group.\n\n\nRuntime ..........: 1h 34mn\nFile Size ........: 1.17 GiB\nResolution .......: 704 x 384 &lt;a href=&quot;\nhttp://www.imdb.com/title/tt0093605/&quot; rel=&quot;nofollow&quot; target=&quot;_NEW&quot;&gt;\nhttp://www.imdb.com/title/tt0093605/&lt;/a&gt;\nGenre ............: Drama,Horror,Thriller\nLanguage .........: English\nSubtitles ........: None\nGeneral\nComplete name : Near Dark 1987 DVDRip Xvid AC3 LKRGND_LKRG.avi\nFormat : AVI\nFormat/Info : Audio Video Interleave\nFile size : 1.17 GiB\nDuration : 1h 34mn\nOverall bit rate : 1 777 Kbps\nWriting application : VirtualDubMod 1.5.10.2 (build 2540/release)\nWriting library : VirtualDubMod build 2540/release\nVideo\nID : 0\nFormat : MPEG-4 Visual\nFormat profile : Advanced Simple@L5\nFormat settings, BVOP : 2\nFormat settings, QPel : No\nFormat settings, GMC : No warppoints\nFormat settings, Matrix : Default (H.263)\nMuxing mode : Packed bitstream\nCodec ID : XVID\nCodec ID/Hint : XviD\nDuration : 1h 34mn\nBit rate : 1 320 Kbps\nWidth : 704 pixels\nHeight : 384 pixels\nDisplay aspect ratio : 1.85:1\nFrame rate : 23.976 fps\nColor space : YUV\nChroma subsampling : 4:2:0\nBit depth : 8 bits\nScan type : Progressive\nCompression mode : Lossy\nBits/(Pixel*Frame) : 0.204\nStream size : 889 MiB (74%)\nWriting library : XviD 1.2.1 (UTC 2008-12-04)\nAudio\nID : 1\nFormat : AC-3\nFormat/Info : Audio Coding 3\nMode extension : CM (complete main)\nFormat settings, Endianness : Big\nCodec ID : 2000\nDuration : 1h 34mn\nBit rate mode : Constant\nBit rate : 448 Kbps\nChannel(s) : 6 channels\nChannel positions : Front: L C R, Side: L R, LFE\nSampling rate : 48.0 KHz\nBit depth : 16 bits\nCompression mode : Lossy\nStream size : 302 MiB (25%)\nAlignment : Split accross interleaves\nInterleave, duration : 42 ms (1.00 video frame)\nInterleave, preload duration : 500 ms","torrent":{"xt":"urn:btih:48fe0c6c9b77889a96ca8d60bb4080d96c0311b0","amp;dn":"Near+Dark+1987+DVDRip+Xvid+AC3+LKRG","amp;tr":["udp%3A%2F%2Ftracker.openbittorrent.com%3A80","udp%3A%2F%2Fopen.demonii.com%3A1337","udp%3A%2F%2Ftracker.coppersurfer.tk%3A6969","udp%3A%2F%2Fexodus.desync.com%3A6969"],"infoHash":"48fe0c6c9b77889a96ca8d60bb4080d96c0311b0","infoHashBuffer":{"type":"Buffer","data":[72,254,12,108,155,119,136,154,150,202,141,96,187,64,128,217,108,3,17,176]},"announce":[],"urlList":[]}}